<?xml version="1.0" encoding="UTF-8"?>
<svg xmlns="http://www.w3.org/2000/svg" id="Layer_2" data-name="Layer 2" viewBox="0 0 615.25 121.11">
  <defs>
    <style>
      .cls-1 {
        fill: #00aeef;
      }

      .cls-2 {
        fill: #fff;
      }
    </style>
  </defs>
  <g id="Layer_1-2" data-name="Layer 1">
    <g>
      <path class="cls-2" d="m115.13,58.14c-6.25,6.92-9.38,15.63-9.38,26.15s3.29,19.68,9.88,26.36c6.58,6.68,15.61,10.02,27.08,10.02h30.98v-15.78h-28.57c-5.21,0-9.57-1.99-13.08-5.97-3.51-3.98-5.26-8.72-5.26-14.21s1.85-10.18,5.54-14.36c3.7-4.17,8.15-6.25,13.36-6.25h28v-17.06h-30.84c-11.75,0-20.99,3.7-27.71,11.09Z"></path>
      <rect class="cls-2" x="229.41" y="47.06" width="19.61" height="73.62"></rect>
      <rect class="cls-2" x="229.41" y="21.33" width="19.61" height="17.48"></rect>
      <polygon class="cls-2" points="319.37 47.06 299.05 98.51 279.43 47.06 255.98 47.06 286.26 120.68 310.7 120.68 342.54 47.06 319.37 47.06"></polygon>
      <path class="cls-2" d="m370.58,106.54c-2.23-.52-4.16-1.56-5.78-3.13-1.62-1.56-2.69-3.13-3.21-4.69-.52-1.56-.78-3.48-.78-5.76h42.64v-15.35h-42.64c0-4.83,1.66-8.67,4.97-11.51,1.8-1.51,3.77-2.53,5.9-3.06,2.13-.52,4.71-.78,7.75-.78h24.16v-15.21h-32.97c-8.34,0-15.9,3.77-22.67,11.3-6.78,7.53-10.16,16.46-10.16,26.79,0,9.48,3.1,17.84,9.31,25.09,6.2,7.25,13.52,10.87,21.96,10.87h34.68v-13.79h-24.96c-3.23,0-5.96-.26-8.2-.78Z"></path>
      <path class="cls-1" d="m493.87,32.25c-6.16-7.28-14.55-10.92-25.16-10.92h-54.24l14.14,16.77h28.17c4.55,0,8.57,1.41,12.08,4.24,3.5,2.83,5.26,6.37,5.26,10.61,0,4.53-1.61,8.3-4.83,11.32-3.22,3.02-7.16,4.53-11.8,4.53h-43.02v51.88h24.45v-34.68h28.46c9.4,0,17.49-3.1,24.28-9.29,6.79-6.19,10.18-13.68,10.18-22.48,0-8.32-2.65-15.65-7.96-21.98Z"></path>
      <rect class="cls-1" x="508.94" y="21.33" width="19.61" height="17.48"></rect>
      <rect class="cls-1" x="508.94" y="47.06" width="19.61" height="73.62"></rect>
      <polygon class="cls-1" points="615.25 47.06 589.95 47.06 574.89 68.24 559.54 47.06 534.66 47.06 562.81 84.87 534.95 120.96 559.82 120.96 574.74 101.35 588.96 120.96 614.4 120.96 586.97 84.3 615.25 47.06"></polygon>
      <g>
        <path class="cls-2" d="m70.03,84.49c-.33.26-.66.53-1,.8l13.97,35.39h24.87l-20.97-48.7c-4.04,2.83-7.94,5.66-11.57,8.42-1.78,1.35-3.55,2.71-5.3,4.09Z"></path>
        <path class="cls-2" d="m76.3,48.86c.17-.1.34-.2.51-.3l-11.72-27.22h-24.3L3.91,111.15l-3.91,9.53h24.47c.07-.07.13-.14.2-.22l16.17-41.99,12.59-32.69,5.6,14.18c.37-.26.74-.51,1.12-.77,5.17-3.49,10.6-6.97,16.15-10.34Z"></path>
      </g>
      <path class="cls-1" d="m266.71.02c-35.86-.36-71.96,4.79-106.51,15.52-28.56,8.82-56.01,21.37-81.68,36.95-5.4,3.28-10.74,6.69-15.98,10.23-.64.43-1.26.87-1.89,1.3-6.74,4.61-13.35,9.42-19.8,14.45l-16.17,41.99c2.91-3.13,5.88-6.22,8.91-9.25,10.64-10.66,21.94-20.72,33.82-30.07,1.77-1.4,3.56-2.78,5.36-4.14,4.08-3.09,8.22-6.1,12.43-9.02,24.35-16.94,50.8-31.01,78.78-41.36,32.78-12.19,67.61-19.17,102.85-20.76,35.26-1.62,70.83,2.23,105.48,10.2C338.13,6.21,302.59.35,266.71.02Z"></path>
      <path class="cls-2" d="m201.98,22.79c-6.55,1.58-13.04,3.35-19.47,5.32v68.7c0,3.89.33,7.25,1,10.09.66,2.84,2.13,5.45,4.41,7.82,3.88,3.98,8.57,5.97,14.07,5.97h18.33v-14.36h-5.83c-3.89,0-7.01-.99-9.38-2.98-2.09-1.99-3.13-4.5-3.13-7.53v-33.4h19.19v-15.35h-19.19v-24.27Z"></path>
    </g>
  </g>
</svg>
